<mxfile modified="2021-07-13T10:51:16.132Z" host="app.diagrams.net" agent="5.0 (Macintosh; Intel Mac OS X 10_15_7) AppleWebKit/537.36 (KHTML, like Gecko) Chrome/91.0.4472.114 Safari/537.36" etag="TfZtVwXBo0SlYjSuGK3v" version="14.8.0" type="github" pages="2">
  <diagram name="Page-1" id="97a40813-6b03-0c74-37c1-0168de264b11">
    <mxGraphModel dx="815" dy="412" grid="1" gridSize="10" guides="1" tooltips="1" connect="1" arrows="1" fold="1" page="1" pageScale="1" pageWidth="827" pageHeight="1169" background="#ffffff" math="0" shadow="0">
      <root>
        <mxCell id="0" />
        <mxCell id="1" parent="0" />
        <mxCell id="tUlMlvfiqlWbATIWQ4SG-36" value="" style="shape=image;html=1;verticalAlign=top;verticalLabelPosition=bottom;labelBackgroundColor=#ffffff;imageAspect=0;aspect=fixed;image=https://cdn0.iconfinder.com/data/icons/basic-ui-1-line/64/Artboard_1-128.png;" vertex="1" parent="1">
          <mxGeometry x="270" y="240" width="128" height="128" as="geometry" />
        </mxCell>
        <mxCell id="tUlMlvfiqlWbATIWQ4SG-37" value="" style="shape=image;html=1;verticalAlign=top;verticalLabelPosition=bottom;labelBackgroundColor=#ffffff;imageAspect=0;aspect=fixed;image=https://cdn0.iconfinder.com/data/icons/basic-ui-1-line/64/Artboard_1-128.png;" vertex="1" parent="1">
          <mxGeometry x="431" y="240" width="128" height="128" as="geometry" />
        </mxCell>
        <mxCell id="tUlMlvfiqlWbATIWQ4SG-3" value="" style="points=[[0.35,0,0],[0.98,0.51,0],[1,0.71,0],[0.67,1,0],[0,0.795,0],[0,0.65,0]];verticalLabelPosition=bottom;html=1;verticalAlign=top;aspect=fixed;align=center;pointerEvents=1;shape=mxgraph.cisco19.user;fillColor=#005073;strokeColor=none;" vertex="1" parent="1">
          <mxGeometry x="208" y="113.75" width="90" height="90" as="geometry" />
        </mxCell>
        <mxCell id="tUlMlvfiqlWbATIWQ4SG-4" value="" style="points=[[0.35,0,0],[0.98,0.51,0],[1,0.71,0],[0.67,1,0],[0,0.795,0],[0,0.65,0]];verticalLabelPosition=bottom;html=1;verticalAlign=top;aspect=fixed;align=center;pointerEvents=1;shape=mxgraph.cisco19.user;fillColor=#005073;strokeColor=none;" vertex="1" parent="1">
          <mxGeometry x="369" y="113.75" width="90" height="90" as="geometry" />
        </mxCell>
        <mxCell id="tUlMlvfiqlWbATIWQ4SG-5" value="" style="points=[[0.35,0,0],[0.98,0.51,0],[1,0.71,0],[0.67,1,0],[0,0.795,0],[0,0.65,0]];verticalLabelPosition=bottom;html=1;verticalAlign=top;aspect=fixed;align=center;pointerEvents=1;shape=mxgraph.cisco19.user;fillColor=#005073;strokeColor=none;" vertex="1" parent="1">
          <mxGeometry x="289" y="273" width="90" height="90" as="geometry" />
        </mxCell>
        <mxCell id="tUlMlvfiqlWbATIWQ4SG-6" value="" style="points=[[0.35,0,0],[0.98,0.51,0],[1,0.71,0],[0.67,1,0],[0,0.795,0],[0,0.65,0]];verticalLabelPosition=bottom;html=1;verticalAlign=top;aspect=fixed;align=center;pointerEvents=1;shape=mxgraph.cisco19.user;fillColor=#005073;strokeColor=none;" vertex="1" parent="1">
          <mxGeometry x="450" y="273" width="90" height="90" as="geometry" />
        </mxCell>
        <mxCell id="tUlMlvfiqlWbATIWQ4SG-7" value="" style="points=[[0.35,0,0],[0.98,0.51,0],[1,0.71,0],[0.67,1,0],[0,0.795,0],[0,0.65,0]];verticalLabelPosition=bottom;html=1;verticalAlign=top;aspect=fixed;align=center;pointerEvents=1;shape=mxgraph.cisco19.user;fillColor=#005073;strokeColor=none;" vertex="1" parent="1">
          <mxGeometry x="530" y="113" width="90" height="90" as="geometry" />
        </mxCell>
        <mxCell id="tUlMlvfiqlWbATIWQ4SG-20" value="" style="shape=image;html=1;verticalAlign=top;verticalLabelPosition=bottom;labelBackgroundColor=#ffffff;imageAspect=0;aspect=fixed;image=https://cdn4.iconfinder.com/data/icons/emoji-line-doodle/91/Emoji_LIne_Doodle_C-01-128.png" vertex="1" parent="1">
          <mxGeometry x="547" y="113.75" width="31.25" height="31.25" as="geometry" />
        </mxCell>
        <mxCell id="tUlMlvfiqlWbATIWQ4SG-21" value="" style="shape=image;html=1;verticalAlign=top;verticalLabelPosition=bottom;labelBackgroundColor=#ffffff;imageAspect=0;aspect=fixed;image=https://cdn4.iconfinder.com/data/icons/emoji-line-doodle/91/Emoji_LIne_Doodle_C-02-128.png" vertex="1" parent="1">
          <mxGeometry x="386" y="115.75" width="30" height="30" as="geometry" />
        </mxCell>
        <mxCell id="tUlMlvfiqlWbATIWQ4SG-22" value="" style="shape=image;html=1;verticalAlign=top;verticalLabelPosition=bottom;labelBackgroundColor=#ffffff;imageAspect=0;aspect=fixed;image=https://cdn4.iconfinder.com/data/icons/emoji-line-doodle/91/Emoji_LIne_Doodle_C-22-128.png" vertex="1" parent="1">
          <mxGeometry x="225" y="115.75" width="30" height="30" as="geometry" />
        </mxCell>
        <mxCell id="tUlMlvfiqlWbATIWQ4SG-23" value="" style="shape=image;html=1;verticalAlign=top;verticalLabelPosition=bottom;labelBackgroundColor=#ffffff;imageAspect=0;aspect=fixed;image=https://cdn4.iconfinder.com/data/icons/emoji-line-doodle/91/Emoji_LIne_Doodle_C-09-128.png" vertex="1" parent="1">
          <mxGeometry x="306" y="276" width="30" height="30" as="geometry" />
        </mxCell>
        <mxCell id="tUlMlvfiqlWbATIWQ4SG-24" value="" style="shape=image;html=1;verticalAlign=top;verticalLabelPosition=bottom;labelBackgroundColor=#ffffff;imageAspect=0;aspect=fixed;image=https://cdn4.iconfinder.com/data/icons/emoji-line-doodle/91/Emoji_LIne_Doodle_C-08-128.png" vertex="1" parent="1">
          <mxGeometry x="467" y="276" width="30" height="30" as="geometry" />
        </mxCell>
        <mxCell id="tUlMlvfiqlWbATIWQ4SG-32" value="" style="shape=image;html=1;verticalAlign=top;verticalLabelPosition=bottom;labelBackgroundColor=#ffffff;imageAspect=0;aspect=fixed;image=https://cdn0.iconfinder.com/data/icons/basic-ui-1-line/64/Artboard_1-128.png" vertex="1" parent="1">
          <mxGeometry x="189" y="80.75" width="128" height="128" as="geometry" />
        </mxCell>
        <mxCell id="tUlMlvfiqlWbATIWQ4SG-34" value="" style="shape=image;html=1;verticalAlign=top;verticalLabelPosition=bottom;labelBackgroundColor=#ffffff;imageAspect=0;aspect=fixed;image=https://cdn0.iconfinder.com/data/icons/basic-ui-1-line/64/Artboard_1-128.png;" vertex="1" parent="1">
          <mxGeometry x="350" y="80.75" width="128" height="128" as="geometry" />
        </mxCell>
        <mxCell id="tUlMlvfiqlWbATIWQ4SG-35" value="" style="shape=image;html=1;verticalAlign=top;verticalLabelPosition=bottom;labelBackgroundColor=#ffffff;imageAspect=0;aspect=fixed;image=https://cdn0.iconfinder.com/data/icons/basic-ui-1-line/64/Artboard_1-128.png;" vertex="1" parent="1">
          <mxGeometry x="511" y="80" width="128" height="128" as="geometry" />
        </mxCell>
      </root>
    </mxGraphModel>
  </diagram>
  <diagram id="4I47rlD8gnw2_mZ96N2L" name="Page-2">
    <mxGraphModel dx="815" dy="412" grid="1" gridSize="10" guides="1" tooltips="1" connect="1" arrows="1" fold="1" page="1" pageScale="1" pageWidth="827" pageHeight="1169" math="0" shadow="0">
      <root>
        <mxCell id="3_A1YP9AFsydKzz6AqeA-0" />
        <mxCell id="3_A1YP9AFsydKzz6AqeA-1" parent="3_A1YP9AFsydKzz6AqeA-0" />
        <mxCell id="OX_GGafAN64HaIiKMjXD-0" value="" style="shape=image;html=1;verticalAlign=top;verticalLabelPosition=bottom;labelBackgroundColor=#ffffff;imageAspect=0;aspect=fixed;image=https://cdn0.iconfinder.com/data/icons/basic-ui-1-line/64/Artboard_1-128.png;" vertex="1" parent="3_A1YP9AFsydKzz6AqeA-1">
          <mxGeometry x="270" y="240" width="128" height="128" as="geometry" />
        </mxCell>
        <mxCell id="OX_GGafAN64HaIiKMjXD-1" value="" style="shape=image;html=1;verticalAlign=top;verticalLabelPosition=bottom;labelBackgroundColor=#ffffff;imageAspect=0;aspect=fixed;image=https://cdn0.iconfinder.com/data/icons/basic-ui-1-line/64/Artboard_1-128.png;" vertex="1" parent="3_A1YP9AFsydKzz6AqeA-1">
          <mxGeometry x="431" y="240" width="128" height="128" as="geometry" />
        </mxCell>
        <mxCell id="OX_GGafAN64HaIiKMjXD-2" value="" style="points=[[0.35,0,0],[0.98,0.51,0],[1,0.71,0],[0.67,1,0],[0,0.795,0],[0,0.65,0]];verticalLabelPosition=bottom;html=1;verticalAlign=top;aspect=fixed;align=center;pointerEvents=1;shape=mxgraph.cisco19.user;fillColor=#005073;strokeColor=none;" vertex="1" parent="3_A1YP9AFsydKzz6AqeA-1">
          <mxGeometry x="208" y="113.75" width="90" height="90" as="geometry" />
        </mxCell>
        <mxCell id="OX_GGafAN64HaIiKMjXD-3" value="" style="points=[[0.35,0,0],[0.98,0.51,0],[1,0.71,0],[0.67,1,0],[0,0.795,0],[0,0.65,0]];verticalLabelPosition=bottom;html=1;verticalAlign=top;aspect=fixed;align=center;pointerEvents=1;shape=mxgraph.cisco19.user;fillColor=#005073;strokeColor=none;" vertex="1" parent="3_A1YP9AFsydKzz6AqeA-1">
          <mxGeometry x="369" y="113.75" width="90" height="90" as="geometry" />
        </mxCell>
        <mxCell id="OX_GGafAN64HaIiKMjXD-4" value="" style="points=[[0.35,0,0],[0.98,0.51,0],[1,0.71,0],[0.67,1,0],[0,0.795,0],[0,0.65,0]];verticalLabelPosition=bottom;html=1;verticalAlign=top;aspect=fixed;align=center;pointerEvents=1;shape=mxgraph.cisco19.user;fillColor=#005073;strokeColor=none;" vertex="1" parent="3_A1YP9AFsydKzz6AqeA-1">
          <mxGeometry x="289" y="273" width="90" height="90" as="geometry" />
        </mxCell>
        <mxCell id="OX_GGafAN64HaIiKMjXD-5" value="" style="points=[[0.35,0,0],[0.98,0.51,0],[1,0.71,0],[0.67,1,0],[0,0.795,0],[0,0.65,0]];verticalLabelPosition=bottom;html=1;verticalAlign=top;aspect=fixed;align=center;pointerEvents=1;shape=mxgraph.cisco19.user;fillColor=#005073;strokeColor=none;" vertex="1" parent="3_A1YP9AFsydKzz6AqeA-1">
          <mxGeometry x="450" y="273" width="90" height="90" as="geometry" />
        </mxCell>
        <mxCell id="OX_GGafAN64HaIiKMjXD-6" value="" style="points=[[0.35,0,0],[0.98,0.51,0],[1,0.71,0],[0.67,1,0],[0,0.795,0],[0,0.65,0]];verticalLabelPosition=bottom;html=1;verticalAlign=top;aspect=fixed;align=center;pointerEvents=1;shape=mxgraph.cisco19.user;fillColor=#005073;strokeColor=none;" vertex="1" parent="3_A1YP9AFsydKzz6AqeA-1">
          <mxGeometry x="530" y="113" width="90" height="90" as="geometry" />
        </mxCell>
        <mxCell id="OX_GGafAN64HaIiKMjXD-7" value="" style="shape=image;html=1;verticalAlign=top;verticalLabelPosition=bottom;labelBackgroundColor=#ffffff;imageAspect=0;aspect=fixed;image=https://cdn4.iconfinder.com/data/icons/emoji-line-doodle/91/Emoji_LIne_Doodle_C-01-128.png" vertex="1" parent="3_A1YP9AFsydKzz6AqeA-1">
          <mxGeometry x="547" y="113.75" width="31.25" height="31.25" as="geometry" />
        </mxCell>
        <mxCell id="OX_GGafAN64HaIiKMjXD-8" value="" style="shape=image;html=1;verticalAlign=top;verticalLabelPosition=bottom;labelBackgroundColor=#ffffff;imageAspect=0;aspect=fixed;image=https://cdn4.iconfinder.com/data/icons/emoji-line-doodle/91/Emoji_LIne_Doodle_C-02-128.png" vertex="1" parent="3_A1YP9AFsydKzz6AqeA-1">
          <mxGeometry x="386" y="115.75" width="30" height="30" as="geometry" />
        </mxCell>
        <mxCell id="OX_GGafAN64HaIiKMjXD-9" value="" style="shape=image;html=1;verticalAlign=top;verticalLabelPosition=bottom;labelBackgroundColor=#ffffff;imageAspect=0;aspect=fixed;image=https://cdn4.iconfinder.com/data/icons/emoji-line-doodle/91/Emoji_LIne_Doodle_C-22-128.png" vertex="1" parent="3_A1YP9AFsydKzz6AqeA-1">
          <mxGeometry x="225" y="115.75" width="30" height="30" as="geometry" />
        </mxCell>
        <mxCell id="OX_GGafAN64HaIiKMjXD-10" value="" style="shape=image;html=1;verticalAlign=top;verticalLabelPosition=bottom;labelBackgroundColor=#ffffff;imageAspect=0;aspect=fixed;image=https://cdn4.iconfinder.com/data/icons/emoji-line-doodle/91/Emoji_LIne_Doodle_C-09-128.png" vertex="1" parent="3_A1YP9AFsydKzz6AqeA-1">
          <mxGeometry x="306" y="276" width="30" height="30" as="geometry" />
        </mxCell>
        <mxCell id="OX_GGafAN64HaIiKMjXD-11" value="" style="shape=image;html=1;verticalAlign=top;verticalLabelPosition=bottom;labelBackgroundColor=#ffffff;imageAspect=0;aspect=fixed;image=https://cdn4.iconfinder.com/data/icons/emoji-line-doodle/91/Emoji_LIne_Doodle_C-08-128.png" vertex="1" parent="3_A1YP9AFsydKzz6AqeA-1">
          <mxGeometry x="467" y="276" width="30" height="30" as="geometry" />
        </mxCell>
        <mxCell id="OX_GGafAN64HaIiKMjXD-12" value="" style="shape=image;html=1;verticalAlign=top;verticalLabelPosition=bottom;labelBackgroundColor=#ffffff;imageAspect=0;aspect=fixed;image=https://cdn0.iconfinder.com/data/icons/basic-ui-1-line/64/Artboard_1-128.png" vertex="1" parent="3_A1YP9AFsydKzz6AqeA-1">
          <mxGeometry x="189" y="80.75" width="128" height="128" as="geometry" />
        </mxCell>
        <mxCell id="OX_GGafAN64HaIiKMjXD-13" value="" style="shape=image;html=1;verticalAlign=top;verticalLabelPosition=bottom;labelBackgroundColor=#ffffff;imageAspect=0;aspect=fixed;image=https://cdn0.iconfinder.com/data/icons/basic-ui-1-line/64/Artboard_1-128.png;" vertex="1" parent="3_A1YP9AFsydKzz6AqeA-1">
          <mxGeometry x="350" y="80.75" width="128" height="128" as="geometry" />
        </mxCell>
        <mxCell id="OX_GGafAN64HaIiKMjXD-14" value="" style="shape=image;html=1;verticalAlign=top;verticalLabelPosition=bottom;labelBackgroundColor=#ffffff;imageAspect=0;aspect=fixed;image=https://cdn0.iconfinder.com/data/icons/basic-ui-1-line/64/Artboard_1-128.png;" vertex="1" parent="3_A1YP9AFsydKzz6AqeA-1">
          <mxGeometry x="511" y="80" width="128" height="128" as="geometry" />
        </mxCell>
      </root>
    </mxGraphModel>
  </diagram>
</mxfile>
